<svg xmlns="http://www.w3.org/2000/svg" width="16" height="16" viewBox="0 0 16 16"><path d="M5.533.5A7.97 7.97 0 0 0 .088 8.05c0 4.345 3.545 7.95 7.92 7.95 1.993-.016 1.98-1.96 0-1.95-3.276 0-5.94-2.668-5.94-6a5.98 5.98 0 0 1 3.465-5.446z" style="color:#000;line-height:normal;fill:#dc322f;fill-opacity:1"/><rect width="1.98" height="2.872" x="-8.03" y="13.024" rx=".99" ry="0" style="fill:#dc322f;fill-opacity:1" transform="scale(-1 1)"/><rect width="1.98" height="3.81" x="3.65" y="13.74" rx=".99" ry="0" style="fill:#dc322f;fill-opacity:1" transform="rotate(135)scale(1 -1)"/><g transform="matrix(-1 0 0 -1 16.075 16.031)"><path d="M5.533.5A7.97 7.97 0 0 0 .088 8.05c0 4.345 3.545 7.95 7.92 7.95 1.993-.016 1.98-1.96 0-1.95-3.276 0-5.94-2.668-5.94-6a5.98 5.98 0 0 1 3.465-5.446z" style="color:#000;line-height:normal;fill:#dc322f;fill-opacity:1"/><rect width="1.98" height="2.872" x="-8.03" y="13.024" rx=".99" ry="0" style="fill:#dc322f;fill-opacity:1" transform="scale(-1 1)"/><rect width="1.98" height="3.81" x="3.65" y="13.74" rx=".99" ry="0" style="fill:#dc322f;fill-opacity:1" transform="rotate(135)scale(1 -1)"/></g></svg>