<svg xmlns="http://www.w3.org/2000/svg" width="16" height="16" viewBox="0 0 16 16"><g style="fill:#dc322f;fill-opacity:1" transform="matrix(.99 0 0 .99 .088 .13)"><path d="M5.5.375A8.05 8.05 0 0 0 0 8c0 4.39 3.58 8.031 8 8.031S16 12.39 16 8A8.055 8.055 0 0 0 10.5.375v2.156C12.542 3.493 14 5.561 14 8c0 3.367-2.69 6.063-6 6.063S2 11.367 2 8a6.05 6.05 0 0 1 3.5-5.5z" style="color:#000;line-height:normal;fill:#dc322f;fill-opacity:1"/><rect width="2" height="8" x="-9" y=".024" rx=".837" ry="0" style="fill:#dc322f;fill-opacity:1" transform="scale(-1 1)"/></g></svg>